<?xml version="1.0" encoding="utf-8"?>
<!-- Generator: Adobe Illustrator 23.1.0, SVG Export Plug-In . SVG Version: 6.00 Build 0)  -->
<svg version="1.1" id="Layer_1" xmlns="http://www.w3.org/2000/svg" xmlns:xlink="http://www.w3.org/1999/xlink" x="0px" y="0px"
	 viewBox="0 0 120 120" style="enable-background:new 0 0 120 120;" xml:space="preserve">
<path d="M-233,0c-33.1,0-60,26.9-60,60s26.9,60,60,60s60-26.9,60-60S-199.9,0-233,0v12c26.5,0,48,21.5,48,48s-21.5,48-48,48
	s-48-21.5-48-48s21.5-48,48-48V0L-233,0L-233,0z"/>
<g>
	<path d="M60,2.3c31.8,0,57.8,25.9,57.8,57.8S91.8,117.8,60,117.8S2.3,91.8,2.3,60S28.2,2.3,60,2.3 M60,2C28,2,2,28,2,60
		s26,58,58,58s58-26,58-58S92,2,60,2L60,2z"/>
</g>
</svg>
