<svg width="319" height="341" viewBox="0 0 319 341" fill="none" xmlns="http://www.w3.org/2000/svg">
<path d="M265.903 284.618C261.571 300.324 267.575 312.651 257.474 325.468C243.922 342.663 225.135 338.843 203.243 339.999C187.657 340.822 178.678 339.652 163.472 336.184C119.327 326.116 98.7746 303.553 68.3838 270.19L68.2502 270.043C41.4643 240.638 28.9075 220.315 15.8091 182.792C4.35114 149.969 -2.08272 129.406 1.93379 94.8549C4.38552 73.7643 3.75275 59.2396 16.9893 42.5813C28.8393 27.668 41.175 24.808 58.5637 16.9697C104.298 -3.64601 137.165 -1.4975 186.613 6.77872C221.578 12.6309 243.974 15.5526 272.186 36.9128C292.99 52.6638 307.384 63.2354 314.98 88.1576C319.871 104.206 317.767 114.331 316.795 131.087C314.572 169.424 301.517 189.153 288.791 225.421C280.586 248.806 272.491 260.733 265.903 284.618Z" fill="#E6C6AB"/>
</svg>
