<svg width="780" height="611" viewBox="0 0 780 611" fill="none" xmlns="http://www.w3.org/2000/svg">
<path d="M312.975 569.372C344.786 586.939 361.691 601.965 397.461 608.372C422.443 612.847 437.182 610.751 462.45 608.372C529.589 602.05 624.922 549.872 624.922 549.872C624.922 549.872 723.444 507.485 754.9 452.373C788.966 392.689 783.168 343.88 767.898 276.874C753.765 214.853 731.533 181.974 689.911 133.875C634.626 69.9854 588.821 41.2827 507.942 16.8755C422.899 -8.78812 367.233 -2.22408 280.48 16.8755C204.973 33.4992 155.886 43.0427 98.5111 94.875C38.6849 148.922 -7.55085 196.7 1.02757 276.874C8.2185 344.08 50.059 372.756 98.5111 419.873C136.376 456.694 165.653 467.689 208.992 497.873C249.433 526.037 269.835 545.549 312.975 569.372Z" fill="#BC9273"/>
</svg>
