<svg width="267" height="239" viewBox="0 0 267 239" fill="none" xmlns="http://www.w3.org/2000/svg">
<path d="M3.63006 200.662C6.43342 212.67 6.41223 221.113 14.7303 230.223C31.2807 248.351 53.2567 233.266 77.6315 230.223C120.262 224.902 143.286 213.387 181.233 193.272C210.617 177.697 233.995 173.463 251.535 145.235C260.453 130.883 264.481 121.377 266.335 104.589C270.585 66.101 254.306 37.2167 221.934 15.9052C208.941 7.35103 200.281 3.69878 184.934 1.12461C150.232 -4.69557 130.303 13.1119 99.8319 30.6857C66.1631 50.104 46.8927 64.5609 25.8305 97.1983C14.6229 114.565 8.1715 125.078 3.63006 145.235C-1.12777 166.353 -1.29158 179.582 3.63006 200.662Z" fill="#EBCFC1"/>
</svg>
