<svg width="248" height="222" viewBox="0 0 248 222" fill="none" xmlns="http://www.w3.org/2000/svg">
<path d="M244.628 35.6108C242.024 24.4576 242.044 16.6151 234.318 8.15233C218.945 -8.6861 198.533 5.32597 175.893 8.15233C136.296 13.0955 114.911 23.7909 79.6633 42.4754C52.3712 56.9429 30.6567 60.8753 14.3647 87.0954C6.08147 100.426 2.33954 109.256 0.617569 124.851C-3.33 160.601 11.7908 187.431 41.8588 207.226C53.9277 215.172 61.9709 218.564 76.2265 220.955C108.458 226.362 126.97 209.821 155.272 193.497C186.545 175.46 204.444 162.031 224.008 131.715C234.418 115.584 240.41 105.819 244.628 87.0954C249.048 67.4798 249.2 55.1916 244.628 35.6108Z" fill="#ED7478" fill-opacity="0.2"/>
</svg>
