<svg width="227" height="220" viewBox="0 0 227 220" fill="none" xmlns="http://www.w3.org/2000/svg">
<path d="M180.403 19.2229C191.54 20.492 199.271 15.0916 209.064 20.5935C222.203 27.975 221.626 41.1626 224.762 55.9297C226.996 66.4439 227.165 72.6762 226.442 83.3902C224.343 114.493 211.221 130.883 191.817 155.118L191.731 155.225C174.629 176.585 162.169 187.297 138.082 200.214C117.011 211.514 103.731 218.086 79.8231 219.044C65.2298 219.629 55.4289 221.611 42.6886 214.386C31.2829 207.919 28.0147 199.833 20.8211 188.843C1.90117 159.936 -0.169451 137.35 0.142339 102.831C0.362807 78.4225 -0.0577495 62.8762 11.425 41.4048C19.8924 25.5717 25.5291 14.6517 41.6467 6.82341C52.0251 1.78264 59.1311 2.13233 70.6198 1.00359C96.9068 -1.57906 111.714 5.19447 137.724 9.9767C154.494 13.0602 163.467 17.2931 180.403 19.2229Z" fill="#E6C6AB" fill-opacity="0.65"/>
</svg>
