<svg width="367" height="424" viewBox="0 0 367 424" fill="none" xmlns="http://www.w3.org/2000/svg">
<path d="M171.809 410.563C184.793 418.423 193.486 422.012 208.638 423.003C227.548 424.24 255.515 410.443 255.515 410.443C255.515 410.443 284.156 399.232 299.603 387.475C331.611 363.111 341.12 338.239 354.397 300.289C367.818 261.926 368.188 237.416 365.759 196.855C362.866 148.552 361.535 116.752 333.69 77.1727C311.171 45.163 291.61 29.5688 255.482 14.4707C210.64 -4.26829 178.283 -3.10533 131.134 8.74932C89.0315 19.335 61.3969 29.0759 33.9342 62.6798C6.96051 95.6854 0.336562 123.891 0.343301 166.493C0.348962 202.26 8.95945 222.526 24.0464 254.954C41.1862 291.794 55.9981 311.005 85.6036 338.849C105.234 357.312 121.121 361.762 141.215 379.72C153.865 391.026 157.293 401.774 171.809 410.563Z" fill="#F2E5D7"/>
</svg>
